<?xml version="1.0" encoding="utf-8"?>
<!-- Generator: Adobe Illustrator 21.1.0, SVG Export Plug-In . SVG Version: 6.00 Build 0)  -->
<svg version="1.1" id="Capa_1" xmlns="http://www.w3.org/2000/svg" xmlns:xlink="http://www.w3.org/1999/xlink" x="0px" y="0px"
	 viewBox="0 0 512 512" style="enable-background:new 0 0 512 512;" xml:space="preserve">
<style type="text/css">
	.st0{fill:#34ABE0;}
	.st1{fill:#279FC9;}
	.st2{fill:#5C5E70;}
	.st3{fill:#797B89;}
	.st4{fill:#FCF8F2;}
	.st5{fill:#D8D8D8;}
	.st6{fill:#A35719;}
	.st7{fill:#F9EED7;}
	.st8{fill:#9E9E9E;}
	.st9{fill:#753F0C;}
	.st10{fill:#494B5B;}
	.st11{fill:#E8DBC4;}
	.st12{fill:#D6C8B0;}
	.st13{fill:#FFD15C;}
	.st14{fill:#EDBB4C;}
	.st15{fill:#FFDC8D;}
	.st16{fill:#78CAEF;}
</style>
<path class="st0" d="M512,256c0,141.4-114.6,256-256,256S0,397.4,0,256c0-13.3,1-26.4,3-39.1c6-39.2,20.9-75.5,42.6-106.7
	c11.1-16,23.9-30.6,38.3-43.7C129.3,25.2,189.7,0,256,0c59,0,113.4,20,156.7,53.5c20.7,16,38.9,35.2,53.8,56.7
	c13.8,20,24.9,42,32.7,65.5C507.5,201,512,228,512,256z"/>
<path class="st1" d="M499.2,175.7l-19.7,38.9c-0.7,1.4-2.1,2.2-3.6,2.2H209.1c-2.3,0-4.1-1.8-4.1-4.1v-13.2l-7.6,15.1
	c-0.7,1.4-2.1,2.2-3.6,2.2H3c6-39.2,20.9-75.5,42.6-106.7c11.1-16,23.9-30.6,38.3-43.7c0.2,0.5,0.3,1,0.3,1.6v2.3
	c0,2.3,1.8,4.1,4.1,4.1h6.4c2.3,0,4.1,1.8,4.1,4.1V82c0,2.3,1.8,4.1,4.1,4.1h12.3c2.3,0,4.1-1.8,4.1-4.1V57.6c0-2.3,1.8-4.1,4.1-4.1
	h10.5c2.3,0,4.1-1.8,4.1-4.1v-5.8c0-2.3,1.8-4.1,4.1-4.1h3.5c2.3,0,4.1,1.8,4.1,4.1V50c0,2.3,1.9,4.1,4.2,4.1c2.2,0,4,1.9,4,4.1v7
	c0,2.3,1.8,4.1,4.1,4.1h8.8c2.3,0,4.1,1.8,4.1,4.1v8.8c0,2.3,1.8,4.1,4.1,4.1h16.9c2.3,0,4.1-1.8,4.1-4.1V49.4
	c0-2.3,1.8-4.1,4.1-4.1h4.7c2.3,0,4.1,1.8,4.1,4.1v34c0,2.5,2,4.6,4.6,4.6h9c2.5,0,4.6-2,4.6-4.6V54.7c0-2.3,1.8-4.1,4.1-4.1h12.3
	c2.3,0,4.1,1.8,4.1,4.1v29.2c0,2.3,1.8,4.1,4.1,4.1h9.3c2.3,0,4.1-1.8,4.1-4.1V68.1c0-2.3,1.8-4.1,4.1-4.1h25.1
	c2.3,0,4.1-1.8,4.1-4.1V37.2c0-2.3,1.8-4.1,4.1-4.1h12.3c2.3,0,4.1,1.8,4.1,4.1V78c0,2.3,1.8,4.1,4.1,4.1h8.8c2.3,0,4.1-1.8,4.1-4.1
	v-9.9c0-2.3,1.8-4.1,4.1-4.1h18.7c2.3,0,4.1,1.8,4.1,4.1v2.3c0,2.3,1.8,4.1,4.1,4.1h6.4c2.3,0,4.1,1.8,4.1,4.1v3.5
	c0,2.3,1.8,4.1,4.1,4.1h12.3c2.3,0,4.1-1.8,4.1-4.1V57.6c0-2.3,1.8-4.1,4.1-4.1h7.3c20.7,16,38.9,35.2,53.8,56.7
	C480.3,130.2,491.4,152.2,499.2,175.7z"/>
<path class="st2" d="M512,256c0,6.8-0.3,13.5-0.8,20.1c-5.4,69.4-38.5,131-88.2,173.9c-20,17.3-42.8,31.5-67.5,41.9
	C325,504.8,291.3,512,256,512c-41.8,0-81.3-10-116.2-27.8c-16.3-8.3-31.5-18.3-45.5-29.7c-1.4-1.1-2.8-2.3-4.2-3.5
	c-2.5-2.1-4.9-4.2-7.3-6.4c-5.7-5.3-11.2-10.8-16.4-16.5l0,0c-1.3-1.5-2.6-2.9-3.9-4.4c-4-4.6-7.8-9.4-11.5-14.2l0,0
	c-1.9-2.5-3.7-5.1-5.5-7.7c-4.5-6.4-8.6-13.1-12.5-20C12,344.6,0,301.7,0,256c0-28.7,4.7-56.2,13.4-82c4.9-14.5,11.1-28.4,18.3-41.6
	c4.2-7.6,8.8-15,13.8-22.2h420.9c6.5,9.4,12.4,19.2,17.6,29.5c16.2,31.7,26,67.2,27.6,104.8c0.1,2.9,0.2,5.8,0.2,8.7
	C512,254.1,512,255,512,256z"/>
<g>
	<path class="st3" d="M511.7,244.5H410.6c-2.9,0-5.5-1.2-7.4-3.1c-1.9-1.9-3.1-4.5-3.1-7.4c0-5.8,4.7-10.5,10.5-10.5h31.8
		c2.9,0,5.5-1.2,7.4-3.1c1.9-1.9,3.1-4.5,3.1-7.4c0-5.8-4.7-10.5-10.5-10.5h-8.9c-2.9,0-5.5-1.2-7.4-3.1c-1.9-1.9-3.1-4.5-3.1-7.4
		c0-5.8,4.7-10.5,10.5-10.5H463c2.9,0,5.5-1.2,7.4-3.1c1.9-1.9,3.1-4.5,3.1-7.4c0-5.8-4.7-10.5-10.5-10.5h-64.6
		c-2.9,0-5.5-1.2-7.4-3.1c-1.9-1.9-3.1-4.5-3.1-7.4c0-5.8,4.7-10.5,10.5-10.5h85.8C500.3,171.4,510.1,206.9,511.7,244.5z"/>
	<path class="st3" d="M423,450c-20,17.3-42.8,31.5-67.5,41.9h-34.1c-2.9,0-5.5-1.2-7.4-3.1s-3.1-4.5-3.1-7.4
		c0-5.8,4.7-10.5,10.5-10.5h2.9c2.9,0,5.5-1.2,7.4-3.1s3.1-4.5,3.1-7.4c0-5.8-4.7-10.5-10.5-10.5h-28.6c-2.9,0-5.5-1.2-7.4-3.1
		s-3.1-4.5-3.1-7.4c0-5.8,4.7-10.5,10.5-10.5H384c5.8,0,10.5,4.7,10.5,10.5s4.7,10.5,10.5,10.5L423,450L423,450z"/>
	<path class="st3" d="M214.8,455c0,2.9-1.2,5.5-3.1,7.4c-1.9,1.9-4.5,3.1-7.4,3.1h-50.1c-5.8,0-10.5,4.7-10.5,10.5
		c0,2.9-1.2,5.5-3.1,7.4c-0.3,0.3-0.6,0.5-0.9,0.8c-16.3-8.3-31.5-18.3-45.5-29.7c-0.3-5.5-4.9-9.9-10.5-9.9h-1
		c-5.7-5.3-11.2-10.8-16.4-16.5l0,0c-1.3-1.5-2.6-2.9-3.9-4.4h87.1c5.8,0,10.5,4.7,10.5,10.5c0,2.9,1.2,5.5,3.1,7.4
		c1.9,1.9,4.5,3.1,7.4,3.1h33.8C210.1,444.5,214.8,449.2,214.8,455z"/>
	<path class="st3" d="M197.1,155.6L197.1,155.6c0-5.8,4.7-10.5,10.5-10.5h99.5c5.8,0,10.5,4.7,10.5,10.5l0,0
		c0,5.8-4.7,10.5-10.5,10.5h-16.6c-5.8,0-10.5,4.7-10.5,10.5l0,0c0,5.8-4.7,10.5-10.5,10.5h-83c-5.8,0-10.5-4.7-10.5-10.5l0,0
		c0-5.8,4.7-10.5,10.5-10.5l0,0C192.4,166,197.1,161.3,197.1,155.6z"/>
</g>
<path class="st4" d="M512,256c0,6.8-0.3,13.5-0.8,20.1H267.5v-23H512C512,254.1,512,255,512,256z"/>
<polygon class="st0" points="427.4,305.8 279.6,305.8 279.6,195.1 393.8,195.1 "/>
<path class="st5" d="M436.4,274.4l-31.5-77.8c-3.1-7.7-10.6-12.7-18.9-12.7H262.6v217.8H438v-119C438,279.9,437.4,277,436.4,274.4z
	 M391.9,282.9h-90.7c-8.6,0-15.5-6.9-15.5-15.5v-44.2c0-9,7.3-16.3,16.3-16.3h71.2c6.6,0,12.6,4,15.1,10.2l18,44.5
	C410.4,271.8,402.9,282.9,391.9,282.9z"/>
<path class="st6" d="M262.6,160.6v241H45.4c-20-28.9-34.2-62-41-97.8c-1.7-8.8-2.9-17.7-3.6-26.7c-0.6-7-0.9-14-0.9-21.1
	c0-44.8,11.5-87,31.8-123.6h202.6C249.9,132.4,262.6,145,262.6,160.6z"/>
<path class="st7" d="M449.3,390.3L449.3,390.3c0,6.2-5.1,11.3-11.3,11.3h-69.8c-54.3,0-6.3-16.4-8.7-22.6H438
	C444.2,379,449.3,384.1,449.3,390.3z"/>
<path class="st8" d="M363.4,401.6H262.6V216.2c0.4,26.1,6.2,142.8,79.5,165.9C362.1,388.4,367.2,395.1,363.4,401.6z"/>
<path class="st9" d="M196.1,401.6H45.4C16.8,360.3,0,310.1,0,256c0-28.7,4.7-56.2,13.4-82C29.5,246.2,76.3,388.2,196.1,401.6z"/>
<circle class="st10" cx="350.8" cy="401.8" r="50.4"/>
<circle class="st11" cx="350.8" cy="401.8" r="29.2"/>
<path class="st12" d="M357.4,419.8c-13.6,0-24.6-11-24.6-24.6c0-9.9,5.8-18.4,14.2-22.3c-14.3,1.9-25.3,14.1-25.3,28.9
	c0,16.1,13.1,29.2,29.2,29.2c14.8,0,27-11,28.9-25.3C375.8,414,367.3,419.8,357.4,419.8z"/>
<g>
	<circle class="st7" cx="359.4" cy="393.9" r="8.7"/>
	<circle class="st7" cx="347.7" cy="382.1" r="5.6"/>
</g>
<circle class="st13" cx="415.1" cy="344.2" r="18.1"/>
<path class="st14" d="M419.2,355.4c-8.4,0-15.3-6.9-15.3-15.3c0-6.1,3.6-11.4,8.8-13.9c-8.9,1.2-15.7,8.8-15.7,18
	c0,10,8.1,18.1,18.1,18.1c9.2,0,16.8-6.9,18-15.7C430.6,351.8,425.3,355.4,419.2,355.4z"/>
<g>
	<circle class="st15" cx="420.4" cy="339.3" r="5.4"/>
	<circle class="st15" cx="413.1" cy="332" r="3.5"/>
</g>
<path class="st10" d="M129.5,401.8c0,24.1-16.9,44.2-39.4,49.2c-16.9-14.4-32-31-44.7-49.3c-4.5-6.4-8.6-13.1-12.5-20
	c7.8-17.8,25.5-30.3,46.2-30.3C107,351.4,129.5,373.9,129.5,401.8z"/>
<path class="st11" d="M108.3,401.8c0,16.1-13.1,29.2-29.2,29.2c-4.6,0-8.9-1.1-12.7-2.9l0,0c-5.4-6-10.5-12.2-15.4-18.6l0,0
	c-0.6-2.4-1-5-1-7.6c0-16.1,13.1-29.2,29.2-29.2C95.3,372.6,108.3,385.7,108.3,401.8z"/>
<path class="st12" d="M108.1,405.6c-1.9,14.3-14.1,25.3-28.9,25.3c-4.6,0-8.9-1.1-12.8-3c-5.4-6-10.6-12.2-15.4-18.6
	c-0.6-2.4-1-5-1-7.6c0-14.8,11-27,25.3-28.9c-8.4,3.9-14.2,12.4-14.2,22.3c0,13.6,11,24.6,24.6,24.6
	C95.6,419.8,104.1,414,108.1,405.6z"/>
<g>
	<circle class="st7" cx="87.8" cy="393.9" r="8.7"/>
	<circle class="st7" cx="76" cy="382.1" r="5.6"/>
</g>
<path class="st16" d="M390.1,246.6c1.7,5.4-4.6,9.8-9.1,6.4l-16.7-12.7L346.9,227c-4.4-3.4-2-10.4,3.5-10.4h26
	c2.5,0,4.8,1.6,5.5,4.1L390.1,246.6z"/>
<g>
	<path class="st8" d="M383.5,199.9h-53.6c-3.1,0-5.6-2.5-5.6-5.6l0,0c0-3.1,2.5-5.6,5.6-5.6h53.6c3.1,0,5.6,2.5,5.6,5.6l0,0
		C389,197.4,386.6,199.9,383.5,199.9z"/>
	<path class="st8" d="M308.9,199.9h-4.2c-3.1,0-5.6-2.5-5.6-5.6l0,0c0-3.1,2.5-5.6,5.6-5.6h4.2c3.1,0,5.6,2.5,5.6,5.6l0,0
		C314.5,197.4,312,199.9,308.9,199.9z"/>
</g>
<g>
	<path class="st9" d="M234.1,166.4h-138c-6.7,0-12.2-5.5-12.2-12.2l0,0c0-6.7,5.5-12.2,12.2-12.2H234c6.7,0,12.2,5.5,12.2,12.2l0,0
		C246.2,161,240.8,166.4,234.1,166.4z"/>
	<path class="st9" d="M63.5,166.4h-4.3c-6.7,0-12.2-5.5-12.2-12.2l0,0c0-6.7,5.5-12.2,12.2-12.2h4.3c6.7,0,12.2,5.5,12.2,12.2l0,0
		C75.7,161,70.2,166.4,63.5,166.4z"/>
</g>
<path class="st8" d="M295.7,314.1H318c3.3,0,5.9-2.7,5.9-5.9l0,0c0-3.3-2.7-5.9-5.9-5.9h-22.3c-3.3,0-5.9,2.7-5.9,5.9l0,0
	C289.8,311.4,292.4,314.1,295.7,314.1z"/>
<path class="st9" d="M186.8,317.1c0,7.4-6,13.3-13.3,13.3H46.9c-3.7,0-7-1.5-9.4-3.9s-3.9-5.7-3.9-9.4c0-7.4-6-13.3-13.3-13.3H4.5
	c-1.7-8.8-2.9-17.7-3.6-26.7c3.1-0.3,6-1.7,8.1-3.8c2.4-2.4,3.9-5.7,3.9-9.4c0-7.4,6-13.3,13.3-13.3h126.6c3.7,0,7,1.5,9.4,3.9
	c2.4,2.4,3.9,5.7,3.9,9.4c0,7.4-6,13.3-13.3,13.3h-42.9c-7.4,0-13.3,6-13.3,13.3s6,13.3,13.3,13.3h63.7c3.7,0,7,1.5,9.4,3.9
	C185.3,310.1,186.8,313.5,186.8,317.1z"/>
</svg>
