<?xml version="1.0" encoding="iso-8859-1"?>
<!-- Generator: Adobe Illustrator 19.0.0, SVG Export Plug-In . SVG Version: 6.00 Build 0)  -->
<svg version="1.1" id="Capa_1" xmlns="http://www.w3.org/2000/svg" xmlns:xlink="http://www.w3.org/1999/xlink" x="0px" y="0px"
	 viewBox="0 0 512 512" style="enable-background:new 0 0 512 512;" xml:space="preserve">
<path style="fill:#34ABE0;" d="M512,256c0,141.385-114.615,256-256,256S0,397.385,0,256c0-13.291,1.014-26.352,2.968-39.1
	c6.008-39.194,20.898-75.463,42.559-106.674C56.613,94.239,69.475,79.59,83.832,66.539C129.296,25.203,189.701,0,256,0
	c59.016,0,113.361,19.968,156.662,53.52c20.699,16.029,38.86,35.161,53.812,56.707c13.845,19.958,24.931,41.984,32.695,65.515
	C507.496,200.986,512,227.976,512,256z"/>
<path style="fill:#279FC9;" d="M499.169,175.741l-19.655,38.912c-0.7,1.379-2.111,2.247-3.647,2.247H209.126
	c-2.257,0-4.086-1.839-4.086-4.096v-13.228l-7.617,15.078c-0.69,1.379-2.1,2.247-3.647,2.247H2.968
	c6.008-39.194,20.898-75.463,42.559-106.674C56.613,94.239,69.475,79.59,83.832,66.539c0.209,0.481,0.324,1.014,0.324,1.578v2.341
	c0,2.257,1.829,4.086,4.086,4.086h6.426c2.257,0,4.086,1.829,4.086,4.086v3.511c0,2.257,1.829,4.086,4.086,4.086h12.267
	c2.257,0,4.086-1.829,4.086-4.086V57.605c0-2.257,1.839-4.086,4.096-4.086h10.512c2.257,0,4.086-1.839,4.086-4.096v-5.841
	c0-2.257,1.829-4.086,4.086-4.086h3.511c2.257,0,4.086,1.829,4.086,4.086v6.426c0,2.288,1.87,4.138,4.169,4.086
	c2.226-0.031,4.012,1.87,4.012,4.096v7.011c0,2.257,1.829,4.086,4.086,4.086h8.756c2.257,0,4.096,1.829,4.096,4.086v8.767
	c0,2.257,1.829,4.086,4.086,4.086h16.938c2.257,0,4.086-1.829,4.086-4.086V49.424c0-2.257,1.829-4.086,4.086-4.086h4.681
	c2.257,0,4.086,1.829,4.086,4.086v33.98c0,2.529,2.048,4.577,4.566,4.577h8.955c2.518,0,4.566-2.048,4.566-4.577V54.68
	c0-2.257,1.829-4.086,4.096-4.086h12.257c2.257,0,4.096,1.829,4.096,4.086v29.205c0,2.257,1.829,4.096,4.086,4.096h9.341
	c2.257,0,4.096-1.839,4.096-4.096V68.117c0-2.257,1.829-4.086,4.086-4.086H297.9c2.267,0,4.096-1.829,4.096-4.086V37.167
	c0-2.267,1.829-4.096,4.086-4.096h12.267c2.257,0,4.086,1.829,4.086,4.096v40.876c0,2.257,1.829,4.096,4.086,4.096h8.767
	c2.257,0,4.086-1.839,4.086-4.096v-9.927c0-2.257,1.829-4.086,4.086-4.086h18.693c2.257,0,4.086,1.829,4.086,4.086v2.341
	c0,2.257,1.829,4.086,4.096,4.086h6.416c2.267,0,4.096,1.829,4.096,4.086v3.511c0,2.257,1.829,4.086,4.086,4.086h12.267
	c2.257,0,4.086-1.829,4.086-4.086V57.605c0-2.257,1.829-4.086,4.086-4.086h7.293c20.699,16.029,38.86,35.161,53.812,56.707
	C480.319,130.184,491.405,152.21,499.169,175.741z"/>
<path style="fill:#5C5E70;" d="M512,256c0,6.781-0.261,13.49-0.784,20.135c-5.392,69.381-38.452,131.009-88.168,173.85
	c-20.031,17.272-42.757,31.483-67.48,41.921C324.963,504.842,291.318,512,256,512c-41.827,0-81.314-10.031-116.172-27.826
	c-16.269-8.297-31.525-18.286-45.547-29.738c-1.411-1.139-2.8-2.309-4.18-3.479c-2.466-2.09-4.89-4.232-7.262-6.416
	c-5.736-5.256-11.222-10.783-16.436-16.541c-0.01-0.01-0.01-0.01-0.021-0.021c-1.317-1.452-2.623-2.915-3.897-4.389
	c-4.002-4.608-7.826-9.352-11.494-14.242l-0.01-0.01c-1.891-2.529-3.741-5.099-5.548-7.701c-4.462-6.447-8.641-13.103-12.507-19.958
	C11.954,344.555,0,301.672,0,256c0-28.672,4.712-56.247,13.416-81.993c4.89-14.493,11.055-28.4,18.348-41.597
	c4.211-7.649,8.808-15.047,13.761-22.183h420.948c6.51,9.383,12.413,19.226,17.638,29.477
	c16.196,31.681,25.966,67.187,27.638,104.782c0.125,2.873,0.209,5.768,0.24,8.662C512,254.098,512,255.049,512,256z"/>
<g>
	<path style="fill:#797B89;" d="M511.749,244.485H410.561c-2.894,0-5.517-1.17-7.408-3.072c-1.902-1.891-3.072-4.514-3.072-7.408
		c0-5.789,4.692-10.48,10.48-10.48h31.848c2.894,0,5.517-1.17,7.408-3.072c1.902-1.891,3.072-4.504,3.072-7.398
		c0-5.789-4.692-10.48-10.48-10.48h-8.892c-2.894,0-5.517-1.17-7.408-3.072c-1.902-1.891-3.072-4.514-3.072-7.408
		c0-5.789,4.692-10.48,10.48-10.48h29.435c2.894,0,5.517-1.17,7.408-3.072c1.902-1.891,3.072-4.514,3.072-7.408
		c0-5.789-4.692-10.48-10.48-10.48h-64.616c-2.894,0-5.517-1.17-7.408-3.072c-1.902-1.891-3.072-4.514-3.072-7.398
		c0-5.789,4.692-10.48,10.48-10.48h85.776C500.308,171.384,510.077,206.89,511.749,244.485z"/>
	<path style="fill:#797B89;" d="M423.048,449.985c-20.031,17.272-42.757,31.483-67.48,41.921h-34.074
		c-2.884,0-5.507-1.17-7.398-3.072c-1.902-1.891-3.072-4.514-3.072-7.408c0-5.789,4.692-10.48,10.47-10.48h2.915
		c2.894,0,5.517-1.17,7.408-3.072c1.902-1.891,3.072-4.514,3.072-7.408c0-5.789-4.692-10.48-10.48-10.48h-28.557
		c-2.894,0-5.517-1.17-7.408-3.072c-1.902-1.891-3.072-4.514-3.072-7.398c0-5.789,4.692-10.48,10.48-10.48h88.304
		c5.778,0,10.47,4.692,10.47,10.48c0,5.778,4.692,10.47,10.48,10.47H423.048z"/>
	<path style="fill:#797B89;" d="M214.8,455.022c0,2.894-1.17,5.517-3.072,7.408c-1.891,1.902-4.514,3.072-7.408,3.072h-50.072
		c-5.778,0-10.47,4.692-10.47,10.48c0,2.894-1.17,5.517-3.072,7.408c-0.272,0.282-0.564,0.543-0.878,0.784
		c-16.269-8.297-31.525-18.286-45.547-29.738c-0.303-5.517-4.88-9.895-10.47-9.895H82.84c-5.736-5.256-11.222-10.783-16.436-16.541
		c-0.01-0.01-0.01-0.01-0.021-0.021c-1.317-1.452-2.623-2.915-3.897-4.389h87.113c5.789,0,10.48,4.692,10.48,10.47
		c0,2.894,1.17,5.517,3.072,7.408c1.891,1.902,4.514,3.072,7.398,3.072h33.771C210.108,444.541,214.8,449.233,214.8,455.022z"/>
	<path style="fill:#797B89;" d="M197.05,155.553L197.05,155.553c0-5.788,4.692-10.479,10.478-10.479h99.548
		c5.787,0,10.478,4.692,10.478,10.478v0.001c0,5.787-4.692,10.478-10.478,10.478h-16.591c-5.787,0-10.478,4.692-10.478,10.478v0.001
		c0,5.787-4.692,10.478-10.478,10.478h-82.958c-5.787,0-10.478-4.692-10.478-10.478v-0.001c0-5.787,4.692-10.478,10.478-10.478l0,0
		C192.358,166.03,197.05,161.34,197.05,155.553z"/>
</g>
<path style="fill:#FCF8F2;" d="M512,256c0,6.781-0.261,13.49-0.784,20.135H267.494v-22.988H511.99C512,254.098,512,255.049,512,256z
	"/>
<polygon style="fill:#34ABE0;" points="427.398,305.828 279.576,305.828 279.576,195.137 393.77,195.137 "/>
<path style="fill:#4BC999;" d="M436.37,274.39l-31.535-77.834c-3.114-7.69-10.574-12.716-18.871-12.716H262.562v217.799H438V282.749
	C438,279.886,437.447,277.044,436.37,274.39z M391.858,282.917h-90.676c-8.568,0-15.517-6.949-15.517-15.517v-44.178
	c0-8.986,7.283-16.269,16.269-16.269h71.21c6.625,0,12.591,4.023,15.078,10.167l18.004,44.46
	C410.363,271.778,402.86,282.917,391.858,282.917z"/>
<path style="fill:#FF525D;" d="M262.552,160.601v241.037H45.432c-19.999-28.86-34.21-62.025-40.97-97.823
	c-1.661-8.756-2.863-17.669-3.605-26.718C0.293,270.137,0,263.105,0,256c0-44.816,11.515-86.956,31.765-123.591H234.35
	C249.929,132.409,262.552,145.032,262.552,160.601z"/>
<path style="fill:#F9EED7;" d="M449.313,390.327L449.313,390.327c0,6.247-5.065,11.312-11.312,11.312h-69.849
	c-54.344,0-6.259-16.362-8.707-22.625h78.556C444.249,379.014,449.313,384.078,449.313,390.327z"/>
<path style="fill:#41B787;" d="M363.395,401.638H262.562V216.168c0.387,26.06,6.238,142.785,79.465,165.909
	C362.141,388.43,367.219,395.128,363.395,401.638z"/>
<path style="fill:#EF4152;" d="M196.096,401.638H45.432C16.781,360.291,0,310.105,0,256c0-28.672,4.712-56.247,13.416-81.993
	C29.529,246.157,76.257,388.159,196.096,401.638z"/>
<circle style="fill:#494B5B;" cx="350.824" cy="401.763" r="50.395"/>
<circle style="fill:#E8DBC4;" cx="350.824" cy="401.763" r="29.168"/>
<path style="fill:#D6C8B0;" d="M357.426,419.788c-13.594,0-24.618-11.024-24.618-24.618c0-9.874,5.81-18.39,14.19-22.309
	c-14.305,1.87-25.339,14.096-25.339,28.902c0,16.112,13.061,29.174,29.174,29.174c14.806,0,27.031-11.034,28.902-25.339
	C375.816,413.978,367.3,419.788,357.426,419.788z"/>
<g>
	<circle style="fill:#F9EED7;" cx="359.445" cy="393.864" r="8.707"/>
	<circle style="fill:#F9EED7;" cx="347.658" cy="382.077" r="5.629"/>
</g>
<circle style="fill:#FFD15C;" cx="415.086" cy="344.242" r="18.125"/>
<path style="fill:#EDBB4C;" d="M419.189,355.445c-8.447,0-15.297-6.85-15.297-15.297c0-6.136,3.61-11.428,8.818-13.863
	c-8.889,1.162-15.746,8.759-15.746,17.96c0,10.012,8.117,18.129,18.129,18.129c9.2,0,16.798-6.857,17.96-15.746
	C430.617,351.835,425.326,355.445,419.189,355.445z"/>
<g>
	<circle style="fill:#FFDC8D;" cx="420.446" cy="339.331" r="5.41"/>
	<circle style="fill:#FFDC8D;" cx="413.121" cy="332.006" r="3.498"/>
</g>
<path style="fill:#494B5B;" d="M129.546,401.763c0,24.074-16.875,44.199-39.445,49.194c-16.938-14.399-31.963-30.992-44.669-49.319
	c-4.462-6.447-8.641-13.103-12.507-19.958c7.753-17.836,25.537-30.313,46.226-30.313
	C106.987,351.368,129.546,373.938,129.546,401.763z"/>
<path style="fill:#E8DBC4;" d="M108.325,401.763c0,16.112-13.061,29.174-29.174,29.174c-4.577,0-8.903-1.055-12.748-2.936
	c-0.01-0.01-0.01-0.01-0.021-0.021c-5.423-5.956-10.543-12.173-15.391-18.631l-0.01-0.01c-0.648-2.414-0.993-4.953-0.993-7.576
	c0-16.102,13.061-29.163,29.163-29.163C95.263,372.6,108.325,385.661,108.325,401.763z"/>
<path style="fill:#D6C8B0;" d="M108.063,405.598c-1.87,14.305-14.096,25.339-28.902,25.339c-4.587,0-8.923-1.055-12.779-2.957
	c-5.423-5.956-10.553-12.184-15.402-18.641c-0.648-2.414-0.993-4.953-0.993-7.576c0-14.806,11.034-27.031,25.339-28.902
	c-8.38,3.918-14.19,12.434-14.19,22.309c0,13.594,11.024,24.618,24.618,24.618C95.629,419.788,104.145,413.978,108.063,405.598z"/>
<g>
	<circle style="fill:#F9EED7;" cx="87.771" cy="393.864" r="8.707"/>
	<circle style="fill:#F9EED7;" cx="75.985" cy="382.077" r="5.629"/>
</g>
<path style="fill:#78CAEF;" d="M390.105,246.629c1.69,5.397-4.553,9.776-9.052,6.35l-16.653-12.682l-17.47-13.304
	c-4.419-3.366-2.039-10.418,3.515-10.418h25.986c2.537,0,4.779,1.648,5.537,4.068L390.105,246.629z"/>
<g>
	<path style="fill:#5BD3A2;" d="M383.478,199.858H329.84c-3.077,0-5.572-2.495-5.572-5.572l0,0c0-3.078,2.495-5.572,5.572-5.572
		h53.638c3.078,0,5.572,2.495,5.572,5.572l0,0C389.05,197.362,386.556,199.858,383.478,199.858z"/>
	<path style="fill:#5BD3A2;" d="M308.942,199.858h-4.18c-3.077,0-5.572-2.495-5.572-5.572l0,0c0-3.078,2.495-5.572,5.572-5.572h4.18
		c3.077,0,5.572,2.495,5.572,5.572l0,0C314.514,197.362,312.019,199.858,308.942,199.858z"/>
</g>
<g>
	<path style="fill:#FF6E7C;" d="M234.057,166.421H96.131c-6.732,0-12.191-5.458-12.191-12.191l0,0
		c0-6.732,5.458-12.191,12.191-12.191h137.927c6.732,0,12.191,5.458,12.191,12.191l0,0
		C246.248,160.963,240.789,166.421,234.057,166.421z"/>
	<path style="fill:#FF6E7C;" d="M63.505,166.421h-4.293c-6.732,0-12.191-5.458-12.191-12.191l0,0
		c0-6.732,5.458-12.191,12.191-12.191h4.293c6.732,0,12.191,5.458,12.191,12.191l0,0C75.696,160.963,70.237,166.421,63.505,166.421z
		"/>
</g>
<path style="fill:#41B787;" d="M295.706,314.099h22.291c3.271,0,5.921-2.651,5.921-5.921l0,0c0-3.271-2.651-5.921-5.921-5.921
	h-22.291c-3.271,0-5.921,2.651-5.921,5.921l0,0C289.785,311.449,292.436,314.099,295.706,314.099z"/>
<path style="fill:#EF4152;" d="M186.786,317.137c0,7.367-5.966,13.322-13.322,13.322H46.895c-3.678,0-7.011-1.494-9.425-3.897
	c-2.403-2.414-3.897-5.747-3.897-9.425c0-7.356-5.966-13.322-13.322-13.322H4.462c-1.661-8.756-2.863-17.669-3.605-26.718
	c3.145-0.313,5.966-1.714,8.088-3.824c2.403-2.414,3.897-5.747,3.897-9.425c0-7.356,5.966-13.322,13.322-13.322h126.579
	c3.678,0,7.011,1.494,9.425,3.897c2.403,2.414,3.897,5.747,3.897,9.425c0,7.356-5.966,13.322-13.322,13.322h-42.935
	c-7.367,0-13.322,5.966-13.322,13.322c0,7.356,5.956,13.322,13.322,13.322h63.655c3.678,0,7.011,1.494,9.415,3.897
	C185.292,310.126,186.786,313.459,186.786,317.137z"/>
<g>
</g>
<g>
</g>
<g>
</g>
<g>
</g>
<g>
</g>
<g>
</g>
<g>
</g>
<g>
</g>
<g>
</g>
<g>
</g>
<g>
</g>
<g>
</g>
<g>
</g>
<g>
</g>
<g>
</g>
</svg>
